<mxfile host="Electron" agent="Mozilla/5.0 (Macintosh; Intel Mac OS X 10_15_7) AppleWebKit/537.36 (KHTML, like Gecko) draw.io/27.0.5 Chrome/134.0.6998.205 Electron/35.3.0 Safari/537.36" version="27.0.5">
  <diagram name="Page-1" id="5f0bae14-7c28-e335-631c-24af17079c00">
    <mxGraphModel dx="1454" dy="984" grid="1" gridSize="10" guides="1" tooltips="1" connect="1" arrows="1" fold="1" page="1" pageScale="1" pageWidth="1100" pageHeight="850" background="none" math="0" shadow="0">
      <root>
        <mxCell id="0" />
        <mxCell id="1" parent="0" />
        <mxCell id="tpsYGi0oh26-8M--UE1b-218" value="" style="rounded=0;whiteSpace=wrap;html=1;dashed=1;" vertex="1" parent="1">
          <mxGeometry x="730" y="492" width="340" height="108" as="geometry" />
        </mxCell>
        <mxCell id="tpsYGi0oh26-8M--UE1b-134" value="&lt;div&gt;&lt;span style=&quot;font-family: &amp;quot;CMU Serif&amp;quot;; text-wrap-mode: nowrap; background-color: transparent; color: light-dark(rgb(0, 0, 0), rgb(255, 255, 255));&quot;&gt;&amp;nbsp; &amp;nbsp; &amp;nbsp; «&lt;/span&gt;&lt;i style=&quot;font-size: 13px;&quot;&gt;subsystems&lt;/i&gt;&lt;b&gt;&lt;font style=&quot;font-size: 15px;&quot;&gt;&lt;/font&gt;&lt;/b&gt;&lt;span style=&quot;font-family: &amp;quot;CMU Serif&amp;quot;; text-wrap-mode: nowrap; background-color: transparent; color: light-dark(rgb(0, 0, 0), rgb(255, 255, 255));&quot;&gt;»&lt;/span&gt;&lt;/div&gt;&lt;b&gt;&lt;font style=&quot;font-size: 15px;&quot;&gt;&amp;nbsp; &amp;nbsp;Multi AI-Agents&lt;/font&gt;&lt;/b&gt;" style="html=1;whiteSpace=wrap;align=left;verticalAlign=top;" vertex="1" parent="1">
          <mxGeometry x="730" y="200" width="340" height="280" as="geometry" />
        </mxCell>
        <mxCell id="tpsYGi0oh26-8M--UE1b-133" value="&lt;div&gt;&lt;span style=&quot;font-family: &amp;quot;CMU Serif&amp;quot;; text-wrap-mode: nowrap; background-color: transparent; color: light-dark(rgb(0, 0, 0), rgb(255, 255, 255));&quot;&gt;«&lt;/span&gt;&lt;i style=&quot;font-size: 13px;&quot;&gt;subsystems&lt;/i&gt;&lt;b&gt;&lt;font style=&quot;font-size: 13px;&quot;&gt;&lt;/font&gt;&lt;/b&gt;&lt;span style=&quot;font-family: &amp;quot;CMU Serif&amp;quot;; text-wrap-mode: nowrap; background-color: transparent; color: light-dark(rgb(0, 0, 0), rgb(255, 255, 255));&quot;&gt;»&lt;/span&gt;&lt;/div&gt;&lt;b&gt;&lt;font style=&quot;font-size: 13px;&quot;&gt;Central Server&lt;/font&gt;&lt;/b&gt;" style="html=1;whiteSpace=wrap;align=center;verticalAlign=top;" vertex="1" parent="1">
          <mxGeometry x="360" y="200" width="360" height="400" as="geometry" />
        </mxCell>
        <mxCell id="tpsYGi0oh26-8M--UE1b-131" value="&lt;div&gt;&lt;font style=&quot;font-size: 13px;&quot;&gt;&lt;span style=&quot;font-family: &amp;quot;CMU Serif&amp;quot;; text-wrap-mode: nowrap; background-color: transparent; color: light-dark(rgb(0, 0, 0), rgb(255, 255, 255)); font-size: 12px;&quot;&gt;«&lt;/span&gt;&lt;i&gt;subsystems&lt;/i&gt;&lt;/font&gt;&lt;span style=&quot;font-family: &amp;quot;CMU Serif&amp;quot;; text-wrap-mode: nowrap; background-color: transparent; color: light-dark(rgb(0, 0, 0), rgb(255, 255, 255));&quot;&gt;»&lt;/span&gt;&lt;/div&gt;&lt;b&gt;&lt;font style=&quot;font-size: 13px;&quot;&gt;Client Device&lt;/font&gt;&lt;/b&gt;" style="html=1;whiteSpace=wrap;align=center;verticalAlign=top;" vertex="1" parent="1">
          <mxGeometry x="20" y="200" width="320" height="400" as="geometry" />
        </mxCell>
        <mxCell id="39150e848f15840c-5" value="&lt;b&gt;Local Model &lt;br&gt;Evaluator&lt;/b&gt;" style="shape=component;align=left;spacingLeft=36;rounded=0;shadow=0;comic=0;labelBackgroundColor=none;strokeWidth=1;fontFamily=CMU Serif;fontSize=12;html=1;" parent="1" vertex="1">
          <mxGeometry x="30" y="250" width="120" height="60" as="geometry" />
        </mxCell>
        <mxCell id="tpsYGi0oh26-8M--UE1b-13" value="&lt;b&gt;Model&amp;nbsp;&lt;/b&gt;&lt;div&gt;&lt;b&gt;Trainer&lt;/b&gt;&lt;/div&gt;" style="shape=component;align=left;spacingLeft=36;rounded=0;shadow=0;comic=0;labelBackgroundColor=none;strokeWidth=1;fontFamily=CMU Serif;fontSize=12;html=1;" vertex="1" parent="1">
          <mxGeometry x="30" y="387" width="120" height="60" as="geometry" />
        </mxCell>
        <mxCell id="tpsYGi0oh26-8M--UE1b-34" value="&lt;p style=&quot;text-align: left; margin: 6px 0px 0px;&quot;&gt;&lt;b&gt;&amp;nbsp;Data Pre-Processor&lt;/b&gt;&lt;/p&gt;&lt;hr style=&quot;border-style:solid;&quot; size=&quot;1&quot;&gt;&lt;p style=&quot;margin:0px;margin-left:8px;&quot;&gt;&lt;span style=&quot;background-color: transparent; color: light-dark(rgb(0, 0, 0), rgb(255, 255, 255)); text-wrap-mode: nowrap;&quot;&gt;FL:«&lt;/span&gt;&lt;i style=&quot;background-color: transparent; color: light-dark(rgb(0, 0, 0), rgb(255, 255, 255));&quot;&gt;Architectural Pattern&lt;/i&gt;&lt;span style=&quot;background-color: transparent; color: light-dark(rgb(0, 0, 0), rgb(255, 255, 255)); text-wrap-mode: nowrap;&quot;&gt;»&lt;/span&gt;&amp;nbsp;&lt;/p&gt;&lt;p style=&quot;margin:0px;margin-left:8px;&quot;&gt;&lt;b&gt;&lt;font face=&quot;Helvetica&quot;&gt;Heterogeneous Data Handler&lt;/font&gt;&lt;/b&gt;&lt;/p&gt;" style="align=center;overflow=fill;html=1;dropTarget=0;whiteSpace=wrap;fillStyle=auto;gradientColor=none;fillColor=light-dark(#f7f2f2, #EDEDED);fontFamily=CMU Serif;" vertex="1" parent="1">
          <mxGeometry x="154" y="462.5" width="180" height="65.5" as="geometry" />
        </mxCell>
        <mxCell id="tpsYGi0oh26-8M--UE1b-35" value="" style="shape=component;jettyWidth=8;jettyHeight=4;align=center;" vertex="1" parent="tpsYGi0oh26-8M--UE1b-34">
          <mxGeometry x="1" width="20" height="20" relative="1" as="geometry">
            <mxPoint x="-24" y="4" as="offset" />
          </mxGeometry>
        </mxCell>
        <mxCell id="tpsYGi0oh26-8M--UE1b-46" value="&lt;p style=&quot;text-align: left; margin: 6px 0px 0px;&quot;&gt;&lt;b&gt;&amp;nbsp;Model Pre-Processor&lt;/b&gt;&lt;/p&gt;&lt;hr style=&quot;border-style:solid;&quot; size=&quot;1&quot;&gt;&lt;p style=&quot;margin:0px;margin-left:8px;&quot;&gt;&lt;span style=&quot;text-wrap-mode: nowrap; background-color: transparent; color: light-dark(rgb(0, 0, 0), rgb(255, 255, 255));&quot;&gt;FL:&lt;/span&gt;&lt;span style=&quot;text-wrap-mode: nowrap; background-color: transparent; color: light-dark(rgb(0, 0, 0), rgb(255, 255, 255));&quot;&gt;«&lt;/span&gt;&lt;i&gt;Architectural Pattern&lt;/i&gt;&lt;span style=&quot;text-wrap-mode: nowrap;&quot;&gt;»&lt;/span&gt;&amp;nbsp;&lt;/p&gt;&lt;p style=&quot;margin:0px;margin-left:8px;&quot;&gt;&lt;b&gt;&lt;font face=&quot;Helvetica&quot;&gt;Message Compressor&lt;/font&gt;&lt;/b&gt;&lt;/p&gt;" style="align=center;overflow=fill;html=1;dropTarget=0;whiteSpace=wrap;fillStyle=auto;gradientColor=none;fillColor=light-dark(#f7f2f2, #EDEDED);fontFamily=CMU Serif;" vertex="1" parent="1">
          <mxGeometry x="159" y="310" width="170" height="70" as="geometry" />
        </mxCell>
        <mxCell id="tpsYGi0oh26-8M--UE1b-47" value="" style="shape=component;jettyWidth=8;jettyHeight=4;align=center;labelBackgroundColor=none;" vertex="1" parent="tpsYGi0oh26-8M--UE1b-46">
          <mxGeometry x="1" width="20" height="20" relative="1" as="geometry">
            <mxPoint x="-24" y="4" as="offset" />
          </mxGeometry>
        </mxCell>
        <mxCell id="tpsYGi0oh26-8M--UE1b-51" value="&lt;p style=&quot;text-align: left; margin: 6px 0px 0px;&quot;&gt;&lt;b&gt;&amp;nbsp;Job Pre-Processor&lt;/b&gt;&lt;/p&gt;&lt;hr style=&quot;border-style:solid;&quot; size=&quot;1&quot;&gt;&lt;p style=&quot;margin:0px;margin-left:8px;&quot;&gt;&lt;span style=&quot;text-wrap-mode: nowrap; background-color: transparent; color: light-dark(rgb(0, 0, 0), rgb(255, 255, 255));&quot;&gt;FL:&lt;/span&gt;&lt;span style=&quot;background-color: transparent; color: light-dark(rgb(0, 0, 0), rgb(255, 255, 255)); text-wrap-mode: nowrap;&quot;&gt;«&lt;/span&gt;&lt;i style=&quot;background-color: transparent; color: light-dark(rgb(0, 0, 0), rgb(255, 255, 255));&quot;&gt;Architectural Pattern&lt;/i&gt;&lt;span style=&quot;background-color: transparent; color: light-dark(rgb(0, 0, 0), rgb(255, 255, 255)); text-wrap-mode: nowrap;&quot;&gt;»&lt;/span&gt;&amp;nbsp;&lt;/p&gt;&lt;p style=&quot;margin:0px;margin-left:8px;&quot;&gt;&lt;b&gt;&lt;font face=&quot;Helvetica&quot;&gt;Client Selector&lt;/font&gt;&lt;/b&gt;&lt;/p&gt;" style="align=center;overflow=fill;html=1;dropTarget=0;whiteSpace=wrap;fillStyle=auto;gradientColor=none;fillColor=light-dark(#f7f2f2, #EDEDED);fontFamily=CMU Serif;" vertex="1" parent="1">
          <mxGeometry x="373" y="526" width="160" height="65.5" as="geometry" />
        </mxCell>
        <mxCell id="tpsYGi0oh26-8M--UE1b-52" value="" style="shape=component;jettyWidth=8;jettyHeight=4;align=center;" vertex="1" parent="tpsYGi0oh26-8M--UE1b-51">
          <mxGeometry x="1" width="20" height="20" relative="1" as="geometry">
            <mxPoint x="-24" y="4" as="offset" />
          </mxGeometry>
        </mxCell>
        <mxCell id="tpsYGi0oh26-8M--UE1b-55" value="&lt;p style=&quot;text-align: left; margin: 6px 0px 0px;&quot;&gt;&lt;b&gt;&amp;nbsp;AI-Management&lt;/b&gt;&lt;/p&gt;&lt;hr style=&quot;border-style:solid;&quot; size=&quot;1&quot;&gt;&lt;p style=&quot;margin:0px;margin-left:8px;&quot;&gt;&lt;span style=&quot;background-color: transparent; color: light-dark(rgb(0, 0, 0), rgb(255, 255, 255)); text-wrap-mode: nowrap;&quot;&gt;AI«&lt;/span&gt;&lt;i style=&quot;background-color: transparent; color: light-dark(rgb(0, 0, 0), rgb(255, 255, 255));&quot;&gt;Architectural Pattern&lt;/i&gt;&lt;span style=&quot;background-color: transparent; color: light-dark(rgb(0, 0, 0), rgb(255, 255, 255)); text-wrap-mode: nowrap;&quot;&gt;»&lt;/span&gt;&amp;nbsp;&lt;/p&gt;&lt;p style=&quot;margin:0px;margin-left:8px;&quot;&gt;&lt;b&gt;&lt;font face=&quot;Helvetica&quot;&gt;Voting-Based&lt;/font&gt;&lt;/b&gt;&lt;/p&gt;" style="align=center;overflow=fill;html=1;dropTarget=0;whiteSpace=wrap;fillStyle=auto;fillColor=#d5e8d4;fontFamily=CMU Serif;strokeColor=light-dark(#000000, #446e2c);" vertex="1" parent="1">
          <mxGeometry x="910" y="245" width="150" height="65.5" as="geometry" />
        </mxCell>
        <mxCell id="tpsYGi0oh26-8M--UE1b-56" value="" style="shape=component;jettyWidth=8;jettyHeight=4;align=center;" vertex="1" parent="tpsYGi0oh26-8M--UE1b-55">
          <mxGeometry x="1" width="20" height="20" relative="1" as="geometry">
            <mxPoint x="-24" y="4" as="offset" />
          </mxGeometry>
        </mxCell>
        <mxCell id="tpsYGi0oh26-8M--UE1b-117" style="edgeStyle=orthogonalEdgeStyle;rounded=0;orthogonalLoop=1;jettySize=auto;html=1;exitX=1;exitY=0.5;exitDx=0;exitDy=0;endArrow=none;startFill=0;strokeWidth=0.9;" edge="1" parent="1" source="tpsYGi0oh26-8M--UE1b-57">
          <mxGeometry relative="1" as="geometry">
            <mxPoint x="870" y="356" as="targetPoint" />
            <mxPoint x="850" y="356.545" as="sourcePoint" />
          </mxGeometry>
        </mxCell>
        <mxCell id="tpsYGi0oh26-8M--UE1b-57" value="&lt;b&gt;AI-Agents&amp;nbsp;&lt;/b&gt;&lt;div&gt;&lt;b&gt;Interface&lt;/b&gt;&lt;/div&gt;" style="shape=component;align=left;spacingLeft=36;rounded=0;shadow=0;comic=0;labelBackgroundColor=none;strokeWidth=1;fontFamily=CMU Serif;fontSize=12;html=1;" vertex="1" parent="1">
          <mxGeometry x="735" y="326.75" width="105" height="59.25" as="geometry" />
        </mxCell>
        <mxCell id="tpsYGi0oh26-8M--UE1b-60" value="&lt;p style=&quot;text-align: left; margin: 6px 0px 0px;&quot;&gt;&lt;b&gt;&amp;nbsp;&lt;/b&gt;&lt;b style=&quot;background-color: transparent; color: light-dark(rgb(0, 0, 0), rgb(255, 255, 255));&quot;&gt;AI-Management&lt;/b&gt;&lt;/p&gt;&lt;hr style=&quot;border-style:solid;&quot; size=&quot;1&quot;&gt;&lt;p style=&quot;margin:0px;margin-left:8px;&quot;&gt;&lt;span style=&quot;background-color: transparent; color: light-dark(rgb(0, 0, 0), rgb(255, 255, 255)); text-wrap-mode: nowrap;&quot;&gt;AI«&lt;/span&gt;&lt;i style=&quot;background-color: transparent; color: light-dark(rgb(0, 0, 0), rgb(255, 255, 255));&quot;&gt;Architectural Pattern&lt;/i&gt;&lt;span style=&quot;background-color: transparent; color: light-dark(rgb(0, 0, 0), rgb(255, 255, 255)); text-wrap-mode: nowrap;&quot;&gt;»&lt;/span&gt;&amp;nbsp;&lt;/p&gt;&lt;p style=&quot;margin:0px;margin-left:8px;&quot;&gt;&lt;b&gt;&lt;font face=&quot;Helvetica&quot;&gt;Debate-Based&lt;/font&gt;&lt;/b&gt;&lt;/p&gt;" style="align=center;overflow=fill;html=1;dropTarget=0;whiteSpace=wrap;fillStyle=auto;fillColor=#d5e8d4;fontFamily=CMU Serif;strokeColor=light-dark(#000000, #446e2c);" vertex="1" parent="1">
          <mxGeometry x="910" y="402.25" width="150" height="65.5" as="geometry" />
        </mxCell>
        <mxCell id="tpsYGi0oh26-8M--UE1b-61" value="" style="shape=component;jettyWidth=8;jettyHeight=4;align=center;" vertex="1" parent="tpsYGi0oh26-8M--UE1b-60">
          <mxGeometry x="1" width="20" height="20" relative="1" as="geometry">
            <mxPoint x="-24" y="4" as="offset" />
          </mxGeometry>
        </mxCell>
        <mxCell id="tpsYGi0oh26-8M--UE1b-74" value="" style="html=1;shape=mxgraph.electrical.electro-mechanical.singleSwitch;aspect=fixed;elSwitchState=off;" vertex="1" parent="1">
          <mxGeometry x="869" y="267.75" width="41" height="10.94" as="geometry" />
        </mxCell>
        <mxCell id="tpsYGi0oh26-8M--UE1b-114" style="edgeStyle=orthogonalEdgeStyle;rounded=0;orthogonalLoop=1;jettySize=auto;html=1;exitX=0;exitY=0.8;exitDx=0;exitDy=0;entryX=0;entryY=0.8;entryDx=0;entryDy=0;endArrow=none;startFill=0;" edge="1" parent="1">
          <mxGeometry relative="1" as="geometry">
            <mxPoint x="872" y="356.50199999999995" as="sourcePoint" />
            <mxPoint x="872" y="276.50199999999995" as="targetPoint" />
            <Array as="points">
              <mxPoint x="863" y="356" />
              <mxPoint x="863" y="276" />
            </Array>
          </mxGeometry>
        </mxCell>
        <mxCell id="tpsYGi0oh26-8M--UE1b-75" value="" style="html=1;shape=mxgraph.electrical.electro-mechanical.singleSwitch;aspect=fixed;elSwitchState=off;" vertex="1" parent="1">
          <mxGeometry x="869" y="347.75" width="41" height="10.94" as="geometry" />
        </mxCell>
        <mxCell id="tpsYGi0oh26-8M--UE1b-58" value="&lt;p style=&quot;text-align: left; margin: 6px 0px 0px;&quot;&gt;&lt;b&gt;&amp;nbsp;&lt;/b&gt;&lt;b style=&quot;background-color: transparent; color: light-dark(rgb(0, 0, 0), rgb(255, 255, 255));&quot;&gt;AI-Management&lt;/b&gt;&lt;/p&gt;&lt;hr style=&quot;border-style:solid;&quot; size=&quot;1&quot;&gt;&lt;p style=&quot;margin:0px;margin-left:8px;&quot;&gt;&lt;span style=&quot;background-color: transparent; color: light-dark(rgb(0, 0, 0), rgb(255, 255, 255)); text-wrap-mode: nowrap;&quot;&gt;AI«&lt;/span&gt;&lt;i style=&quot;background-color: transparent; color: light-dark(rgb(0, 0, 0), rgb(255, 255, 255));&quot;&gt;Architectural Pattern&lt;/i&gt;&lt;span style=&quot;background-color: transparent; color: light-dark(rgb(0, 0, 0), rgb(255, 255, 255)); text-wrap-mode: nowrap;&quot;&gt;»&lt;/span&gt;&amp;nbsp;&lt;/p&gt;&lt;p style=&quot;margin:0px;margin-left:8px;&quot;&gt;&lt;b&gt;&lt;font face=&quot;Helvetica&quot;&gt;Role-Based&lt;/font&gt;&lt;/b&gt;&lt;/p&gt;" style="align=center;overflow=fill;html=1;dropTarget=0;whiteSpace=wrap;fillStyle=auto;fillColor=#d5e8d4;fontFamily=CMU Serif;strokeColor=light-dark(#000000, #446e2c);" vertex="1" parent="1">
          <mxGeometry x="910" y="324.75" width="150" height="65.5" as="geometry" />
        </mxCell>
        <mxCell id="tpsYGi0oh26-8M--UE1b-59" value="" style="shape=component;jettyWidth=8;jettyHeight=4;align=center;" vertex="1" parent="tpsYGi0oh26-8M--UE1b-58">
          <mxGeometry x="1" width="20" height="20" relative="1" as="geometry">
            <mxPoint x="-24" y="4" as="offset" />
          </mxGeometry>
        </mxCell>
        <mxCell id="tpsYGi0oh26-8M--UE1b-116" style="edgeStyle=orthogonalEdgeStyle;rounded=0;orthogonalLoop=1;jettySize=auto;html=1;exitX=0;exitY=0.8;exitDx=0;exitDy=0;endArrow=none;startFill=0;" edge="1" parent="1">
          <mxGeometry relative="1" as="geometry">
            <mxPoint x="863" y="356" as="targetPoint" />
            <mxPoint x="872" y="436.28200000000004" as="sourcePoint" />
            <Array as="points">
              <mxPoint x="863" y="436" />
            </Array>
          </mxGeometry>
        </mxCell>
        <mxCell id="tpsYGi0oh26-8M--UE1b-77" value="" style="html=1;shape=mxgraph.electrical.electro-mechanical.singleSwitch;aspect=fixed;elSwitchState=off;" vertex="1" parent="1">
          <mxGeometry x="869" y="427.53000000000003" width="41" height="10.94" as="geometry" />
        </mxCell>
        <mxCell id="tpsYGi0oh26-8M--UE1b-164" style="edgeStyle=orthogonalEdgeStyle;rounded=0;orthogonalLoop=1;jettySize=auto;html=1;exitX=0;exitY=0.8;exitDx=0;exitDy=0;endArrow=none;startFill=0;" edge="1" parent="1" source="tpsYGi0oh26-8M--UE1b-84">
          <mxGeometry relative="1" as="geometry">
            <mxPoint x="90" y="360.28571428571433" as="targetPoint" />
          </mxGeometry>
        </mxCell>
        <mxCell id="tpsYGi0oh26-8M--UE1b-84" value="" style="html=1;shape=mxgraph.electrical.electro-mechanical.singleSwitch;aspect=fixed;elSwitchState=off;" vertex="1" parent="1">
          <mxGeometry x="110" y="349.53" width="49" height="13.07" as="geometry" />
        </mxCell>
        <mxCell id="tpsYGi0oh26-8M--UE1b-153" style="edgeStyle=orthogonalEdgeStyle;rounded=0;orthogonalLoop=1;jettySize=auto;html=1;exitX=0;exitY=0.8;exitDx=0;exitDy=0;endArrow=none;startFill=0;" edge="1" parent="1" source="tpsYGi0oh26-8M--UE1b-89">
          <mxGeometry relative="1" as="geometry">
            <mxPoint x="90" y="499.42857142857144" as="targetPoint" />
          </mxGeometry>
        </mxCell>
        <mxCell id="tpsYGi0oh26-8M--UE1b-89" value="" style="html=1;shape=mxgraph.electrical.electro-mechanical.singleSwitch;aspect=fixed;elSwitchState=off;" vertex="1" parent="1">
          <mxGeometry x="105" y="502.71999999999997" width="49" height="13.07" as="geometry" />
        </mxCell>
        <mxCell id="tpsYGi0oh26-8M--UE1b-101" value="" style="rounded=0;whiteSpace=wrap;html=1;fillColor=#d5e8d4;strokeColor=#000000;spacing=2;rotation=0;" vertex="1" parent="1">
          <mxGeometry x="744.23" y="550.75" width="43.77" height="15" as="geometry" />
        </mxCell>
        <mxCell id="tpsYGi0oh26-8M--UE1b-76" value="" style="html=1;shape=mxgraph.electrical.electro-mechanical.singleSwitch;aspect=fixed;elSwitchState=off;" vertex="1" parent="1">
          <mxGeometry x="742.62" y="572.48" width="47" height="12.54" as="geometry" />
        </mxCell>
        <mxCell id="tpsYGi0oh26-8M--UE1b-102" value="&lt;font style=&quot;&quot;&gt;Switch (Pattern ON/OFF)&lt;/font&gt;" style="text;html=1;align=center;verticalAlign=middle;whiteSpace=wrap;rounded=0;fontColor=light-dark(#000000, #44484a);fontSize=10;" vertex="1" parent="1">
          <mxGeometry x="794" y="566" width="121" height="30" as="geometry" />
        </mxCell>
        <mxCell id="tpsYGi0oh26-8M--UE1b-103" value="FL Architectural Pattern" style="text;html=1;align=center;verticalAlign=middle;whiteSpace=wrap;rounded=0;fontColor=#000000;fontSize=10;" vertex="1" parent="1">
          <mxGeometry x="796" y="520.75" width="109" height="30" as="geometry" />
        </mxCell>
        <mxCell id="tpsYGi0oh26-8M--UE1b-104" value="&lt;font style=&quot;&quot;&gt;AI-Agent Architectural Pattern&lt;/font&gt;" style="text;html=1;align=center;verticalAlign=middle;whiteSpace=wrap;rounded=0;fontColor=#000000;fontSize=10;" vertex="1" parent="1">
          <mxGeometry x="793.62" y="544" width="142" height="30" as="geometry" />
        </mxCell>
        <mxCell id="tpsYGi0oh26-8M--UE1b-106" value="Legend" style="text;html=1;align=center;verticalAlign=middle;whiteSpace=wrap;rounded=0;fontColor=light-dark(#000000, #8396aa);fontSize=13;fontStyle=1" vertex="1" parent="1">
          <mxGeometry x="745" y="492" width="43" height="30" as="geometry" />
        </mxCell>
        <mxCell id="tpsYGi0oh26-8M--UE1b-109" value="" style="rounded=0;whiteSpace=wrap;html=1;fillColor=light-dark(#F7F2F2,#EDEDED);strokeColor=#000000;spacing=2;rotation=0;" vertex="1" parent="1">
          <mxGeometry x="744.23" y="528.25" width="43.77" height="15" as="geometry" />
        </mxCell>
        <mxCell id="tpsYGi0oh26-8M--UE1b-119" value="" style="rounded=0;whiteSpace=wrap;html=1;spacing=2;rotation=0;" vertex="1" parent="1">
          <mxGeometry x="951" y="528.25" width="43.77" height="15" as="geometry" />
        </mxCell>
        <mxCell id="tpsYGi0oh26-8M--UE1b-122" value="" style="rounded=0;whiteSpace=wrap;html=1;spacing=2;rotation=0;" vertex="1" parent="1">
          <mxGeometry x="953.48" y="548.23" width="41.52" height="20.77" as="geometry" />
        </mxCell>
        <mxCell id="tpsYGi0oh26-8M--UE1b-123" value="" style="rounded=0;whiteSpace=wrap;html=1;spacing=2;rotation=0;" vertex="1" parent="1">
          <mxGeometry x="945.81" y="550.75" width="16.77" height="5.25" as="geometry" />
        </mxCell>
        <mxCell id="tpsYGi0oh26-8M--UE1b-124" value="" style="rounded=0;whiteSpace=wrap;html=1;spacing=2;rotation=0;" vertex="1" parent="1">
          <mxGeometry x="945.81" y="558.23" width="16.77" height="4.77" as="geometry" />
        </mxCell>
        <mxCell id="tpsYGi0oh26-8M--UE1b-126" value="Artifact" style="text;html=1;align=center;verticalAlign=middle;whiteSpace=wrap;rounded=0;fontColor=#000000;fontSize=10;" vertex="1" parent="1">
          <mxGeometry x="999" y="520.75" width="40" height="30" as="geometry" />
        </mxCell>
        <mxCell id="tpsYGi0oh26-8M--UE1b-127" value="Component" style="text;html=1;align=center;verticalAlign=middle;whiteSpace=wrap;rounded=0;fontColor=#000000;fontSize=10;" vertex="1" parent="1">
          <mxGeometry x="1009" y="544.36" width="40" height="30" as="geometry" />
        </mxCell>
        <mxCell id="tpsYGi0oh26-8M--UE1b-186" style="edgeStyle=orthogonalEdgeStyle;rounded=0;orthogonalLoop=1;jettySize=auto;html=1;exitX=1;exitY=0.8;exitDx=0;exitDy=0;endArrow=none;startFill=0;" edge="1" parent="1" source="tpsYGi0oh26-8M--UE1b-136" target="tpsYGi0oh26-8M--UE1b-51">
          <mxGeometry relative="1" as="geometry">
            <Array as="points">
              <mxPoint x="449" y="530" />
              <mxPoint x="449" y="530" />
            </Array>
          </mxGeometry>
        </mxCell>
        <mxCell id="tpsYGi0oh26-8M--UE1b-136" value="" style="html=1;shape=mxgraph.electrical.electro-mechanical.singleSwitch;aspect=fixed;elSwitchState=off;rotation=90;" vertex="1" parent="1">
          <mxGeometry x="428.5" y="488.71" width="49" height="13.07" as="geometry" />
        </mxCell>
        <mxCell id="tpsYGi0oh26-8M--UE1b-8" value="«artifact»&lt;br&gt;&lt;b&gt;Training Data&lt;/b&gt;" style="html=1;rounded=0;shadow=0;comic=0;labelBackgroundColor=none;strokeWidth=1;fontFamily=CMU Serif;fontSize=12;align=center;" vertex="1" parent="1">
          <mxGeometry x="35" y="539.25" width="110" height="50" as="geometry" />
        </mxCell>
        <mxCell id="tpsYGi0oh26-8M--UE1b-150" value="" style="rounded=0;orthogonalLoop=1;jettySize=auto;html=1;endArrow=halfCircle;endFill=0;endSize=6;strokeWidth=1;sketch=0;exitX=0.5;exitY=1;exitDx=0;exitDy=0;" edge="1" target="tpsYGi0oh26-8M--UE1b-152" parent="1" source="tpsYGi0oh26-8M--UE1b-13">
          <mxGeometry relative="1" as="geometry">
            <mxPoint x="110" y="508" as="sourcePoint" />
          </mxGeometry>
        </mxCell>
        <mxCell id="tpsYGi0oh26-8M--UE1b-151" value="" style="rounded=0;orthogonalLoop=1;jettySize=auto;html=1;endArrow=oval;endFill=0;sketch=0;sourcePerimeterSpacing=0;targetPerimeterSpacing=0;endSize=10;exitX=0.5;exitY=0;exitDx=0;exitDy=0;" edge="1" target="tpsYGi0oh26-8M--UE1b-152" parent="1" source="tpsYGi0oh26-8M--UE1b-8">
          <mxGeometry relative="1" as="geometry">
            <mxPoint x="70" y="508" as="sourcePoint" />
          </mxGeometry>
        </mxCell>
        <mxCell id="tpsYGi0oh26-8M--UE1b-152" value="" style="ellipse;whiteSpace=wrap;html=1;align=center;aspect=fixed;fillColor=none;strokeColor=none;resizable=0;perimeter=centerPerimeter;rotatable=0;allowArrows=0;points=[];outlineConnect=1;" vertex="1" parent="1">
          <mxGeometry x="85" y="474" width="10" height="10" as="geometry" />
        </mxCell>
        <mxCell id="tpsYGi0oh26-8M--UE1b-156" value="" style="ellipse;whiteSpace=wrap;html=1;align=center;aspect=fixed;fillColor=none;strokeColor=none;resizable=0;perimeter=centerPerimeter;rotatable=0;allowArrows=0;points=[];outlineConnect=1;" vertex="1" parent="1">
          <mxGeometry x="215" y="422" width="10" height="10" as="geometry" />
        </mxCell>
        <mxCell id="tpsYGi0oh26-8M--UE1b-160" value="" style="rounded=0;orthogonalLoop=1;jettySize=auto;html=1;endArrow=halfCircle;endFill=0;endSize=6;strokeWidth=1;sketch=0;exitX=0.5;exitY=1;exitDx=0;exitDy=0;" edge="1" target="tpsYGi0oh26-8M--UE1b-162" parent="1" source="39150e848f15840c-5">
          <mxGeometry relative="1" as="geometry">
            <mxPoint x="110" y="347" as="sourcePoint" />
          </mxGeometry>
        </mxCell>
        <mxCell id="tpsYGi0oh26-8M--UE1b-161" value="" style="rounded=0;orthogonalLoop=1;jettySize=auto;html=1;endArrow=oval;endFill=0;sketch=0;sourcePerimeterSpacing=0;targetPerimeterSpacing=0;endSize=10;exitX=0.5;exitY=0;exitDx=0;exitDy=0;" edge="1" target="tpsYGi0oh26-8M--UE1b-162" parent="1" source="tpsYGi0oh26-8M--UE1b-13">
          <mxGeometry relative="1" as="geometry">
            <mxPoint x="70" y="347" as="sourcePoint" />
          </mxGeometry>
        </mxCell>
        <mxCell id="tpsYGi0oh26-8M--UE1b-162" value="" style="ellipse;whiteSpace=wrap;html=1;align=center;aspect=fixed;fillColor=none;strokeColor=none;resizable=0;perimeter=centerPerimeter;rotatable=0;allowArrows=0;points=[];outlineConnect=1;" vertex="1" parent="1">
          <mxGeometry x="85" y="330" width="10" height="10" as="geometry" />
        </mxCell>
        <mxCell id="tpsYGi0oh26-8M--UE1b-165" value="Data&amp;nbsp;&lt;div&gt;Injection&lt;/div&gt;" style="text;align=center;fontStyle=1;verticalAlign=middle;spacingLeft=3;spacingRight=3;strokeColor=none;rotatable=0;points=[[0,0.5],[1,0.5]];portConstraint=eastwest;html=1;fontSize=8;" vertex="1" parent="1">
          <mxGeometry x="48" y="466" width="30" height="26" as="geometry" />
        </mxCell>
        <mxCell id="tpsYGi0oh26-8M--UE1b-166" value="Model&lt;div&gt;Update&lt;/div&gt;" style="text;align=center;fontStyle=1;verticalAlign=middle;spacingLeft=3;spacingRight=3;strokeColor=none;rotatable=0;points=[[0,0.5],[1,0.5]];portConstraint=eastwest;html=1;fontSize=8;" vertex="1" parent="1">
          <mxGeometry x="48" y="322" width="30" height="26" as="geometry" />
        </mxCell>
        <mxCell id="tpsYGi0oh26-8M--UE1b-172" value="" style="rounded=0;orthogonalLoop=1;jettySize=auto;html=1;endArrow=halfCircle;endFill=0;endSize=6;strokeWidth=1;sketch=0;" edge="1" target="tpsYGi0oh26-8M--UE1b-174" parent="1">
          <mxGeometry relative="1" as="geometry">
            <mxPoint x="406" y="280" as="sourcePoint" />
          </mxGeometry>
        </mxCell>
        <mxCell id="tpsYGi0oh26-8M--UE1b-173" value="" style="rounded=0;orthogonalLoop=1;jettySize=auto;html=1;endArrow=oval;endFill=0;sketch=0;sourcePerimeterSpacing=0;targetPerimeterSpacing=0;endSize=10;exitX=1;exitY=0.5;exitDx=0;exitDy=0;" edge="1" target="tpsYGi0oh26-8M--UE1b-174" parent="1" source="39150e848f15840c-5">
          <mxGeometry relative="1" as="geometry">
            <mxPoint x="240" y="280" as="sourcePoint" />
          </mxGeometry>
        </mxCell>
        <mxCell id="tpsYGi0oh26-8M--UE1b-174" value="" style="ellipse;whiteSpace=wrap;html=1;align=center;aspect=fixed;fillColor=none;strokeColor=none;resizable=0;perimeter=centerPerimeter;rotatable=0;allowArrows=0;points=[];outlineConnect=1;" vertex="1" parent="1">
          <mxGeometry x="255" y="275" width="10" height="10" as="geometry" />
        </mxCell>
        <mxCell id="tpsYGi0oh26-8M--UE1b-175" value="Model&lt;div&gt;Aggregation&lt;/div&gt;" style="text;align=center;fontStyle=1;verticalAlign=middle;spacingLeft=3;spacingRight=3;strokeColor=none;rotatable=0;points=[[0,0.5],[1,0.5]];portConstraint=eastwest;html=1;fontSize=8;" vertex="1" parent="1">
          <mxGeometry x="245" y="245.75" width="30" height="26" as="geometry" />
        </mxCell>
        <mxCell id="tpsYGi0oh26-8M--UE1b-178" value="" style="ellipse;whiteSpace=wrap;html=1;align=center;aspect=fixed;fillColor=none;strokeColor=none;resizable=0;perimeter=centerPerimeter;rotatable=0;allowArrows=0;points=[];outlineConnect=1;" vertex="1" parent="1">
          <mxGeometry x="444" y="352" width="10" height="10" as="geometry" />
        </mxCell>
        <mxCell id="tpsYGi0oh26-8M--UE1b-179" value="Model&lt;div&gt;Training&lt;/div&gt;" style="text;align=center;fontStyle=1;verticalAlign=middle;spacingLeft=3;spacingRight=3;strokeColor=none;rotatable=0;points=[[0,0.5],[1,0.5]];portConstraint=eastwest;html=1;fontSize=8;" vertex="1" parent="1">
          <mxGeometry x="245" y="389" width="30" height="26" as="geometry" />
        </mxCell>
        <mxCell id="tpsYGi0oh26-8M--UE1b-181" style="edgeStyle=orthogonalEdgeStyle;rounded=0;orthogonalLoop=1;jettySize=auto;html=1;exitX=0;exitY=0.8;exitDx=0;exitDy=0;endArrow=none;endFill=1;startFill=0;entryX=0.549;entryY=0.994;entryDx=0;entryDy=0;entryPerimeter=0;" edge="1" parent="1" source="tpsYGi0oh26-8M--UE1b-136" target="tpsYGi0oh26-8M--UE1b-49">
          <mxGeometry relative="1" as="geometry">
            <mxPoint x="449" y="450" as="targetPoint" />
          </mxGeometry>
        </mxCell>
        <mxCell id="tpsYGi0oh26-8M--UE1b-182" value="" style="rounded=0;orthogonalLoop=1;jettySize=auto;html=1;endArrow=halfCircle;endFill=0;endSize=6;strokeWidth=1;sketch=0;" edge="1" parent="1">
          <mxGeometry relative="1" as="geometry">
            <mxPoint x="405.5" y="421.40999999999997" as="sourcePoint" />
            <mxPoint x="259.5" y="421.40999999999997" as="targetPoint" />
          </mxGeometry>
        </mxCell>
        <mxCell id="tpsYGi0oh26-8M--UE1b-183" value="" style="rounded=0;orthogonalLoop=1;jettySize=auto;html=1;endArrow=oval;endFill=0;sketch=0;sourcePerimeterSpacing=0;targetPerimeterSpacing=0;endSize=10;exitX=1;exitY=0.5;exitDx=0;exitDy=0;" edge="1" parent="1">
          <mxGeometry relative="1" as="geometry">
            <mxPoint x="149.5" y="421.40999999999997" as="sourcePoint" />
            <mxPoint x="259.5" y="421.40999999999997" as="targetPoint" />
          </mxGeometry>
        </mxCell>
        <mxCell id="tpsYGi0oh26-8M--UE1b-210" style="edgeStyle=orthogonalEdgeStyle;rounded=0;orthogonalLoop=1;jettySize=auto;html=1;exitX=0.25;exitY=1;exitDx=0;exitDy=0;entryX=0;entryY=0.5;entryDx=0;entryDy=0;dashed=1;" edge="1" parent="1" source="tpsYGi0oh26-8M--UE1b-140" target="tpsYGi0oh26-8M--UE1b-65">
          <mxGeometry relative="1" as="geometry">
            <Array as="points">
              <mxPoint x="603" y="330" />
              <mxPoint x="550" y="330" />
              <mxPoint x="550" y="559" />
            </Array>
          </mxGeometry>
        </mxCell>
        <mxCell id="tpsYGi0oh26-8M--UE1b-211" value="&lt;i&gt;Generate&lt;/i&gt;&lt;div&gt;&lt;i&gt;Report&lt;/i&gt;&lt;/div&gt;" style="edgeLabel;html=1;align=center;verticalAlign=middle;resizable=0;points=[];" vertex="1" connectable="0" parent="tpsYGi0oh26-8M--UE1b-210">
          <mxGeometry x="-0.4014" y="2" relative="1" as="geometry">
            <mxPoint x="-2" y="3" as="offset" />
          </mxGeometry>
        </mxCell>
        <mxCell id="tpsYGi0oh26-8M--UE1b-67" value="&lt;b&gt;Model&amp;nbsp;&lt;/b&gt;&lt;div&gt;&lt;b&gt;Aggregator&lt;/b&gt;&lt;/div&gt;" style="shape=component;align=left;spacingLeft=36;rounded=0;shadow=0;comic=0;labelBackgroundColor=none;strokeWidth=1;fontFamily=CMU Serif;fontSize=12;html=1;" vertex="1" parent="1">
          <mxGeometry x="383" y="249.99999999999997" width="120" height="60" as="geometry" />
        </mxCell>
        <mxCell id="tpsYGi0oh26-8M--UE1b-188" value="" style="rounded=0;orthogonalLoop=1;jettySize=auto;html=1;endArrow=halfCircle;endFill=0;endSize=6;strokeWidth=1;sketch=0;exitX=0.132;exitY=0.508;exitDx=0;exitDy=0;exitPerimeter=0;" edge="1" target="tpsYGi0oh26-8M--UE1b-190" parent="1" source="tpsYGi0oh26-8M--UE1b-140">
          <mxGeometry relative="1" as="geometry">
            <mxPoint x="568" y="280" as="sourcePoint" />
          </mxGeometry>
        </mxCell>
        <mxCell id="tpsYGi0oh26-8M--UE1b-189" value="" style="rounded=0;orthogonalLoop=1;jettySize=auto;html=1;endArrow=oval;endFill=0;sketch=0;sourcePerimeterSpacing=0;targetPerimeterSpacing=0;endSize=10;exitX=1;exitY=0.5;exitDx=0;exitDy=0;" edge="1" target="tpsYGi0oh26-8M--UE1b-190" parent="1" source="tpsYGi0oh26-8M--UE1b-67">
          <mxGeometry relative="1" as="geometry">
            <mxPoint x="528" y="280" as="sourcePoint" />
          </mxGeometry>
        </mxCell>
        <mxCell id="tpsYGi0oh26-8M--UE1b-190" value="" style="ellipse;whiteSpace=wrap;html=1;align=center;aspect=fixed;fillColor=none;strokeColor=none;resizable=0;perimeter=centerPerimeter;rotatable=0;allowArrows=0;points=[];outlineConnect=1;" vertex="1" parent="1">
          <mxGeometry x="532" y="275" width="10" height="10" as="geometry" />
        </mxCell>
        <mxCell id="tpsYGi0oh26-8M--UE1b-140" value="&lt;b&gt;Global Model&lt;/b&gt;&lt;div&gt;&lt;b&gt;Evaluator&lt;/b&gt;&lt;/div&gt;" style="shape=component;align=left;spacingLeft=36;rounded=0;shadow=0;comic=0;labelBackgroundColor=none;strokeWidth=1;fontFamily=CMU Serif;fontSize=12;html=1;" vertex="1" parent="1">
          <mxGeometry x="570" y="249.22" width="130" height="60.78" as="geometry" />
        </mxCell>
        <mxCell id="tpsYGi0oh26-8M--UE1b-191" value="Model&lt;div&gt;Evaluation&lt;/div&gt;" style="text;align=center;fontStyle=1;verticalAlign=middle;spacingLeft=3;spacingRight=3;strokeColor=none;rotatable=0;points=[[0,0.5],[1,0.5]];portConstraint=eastwest;html=1;fontSize=8;" vertex="1" parent="1">
          <mxGeometry x="522" y="245.75" width="30" height="26" as="geometry" />
        </mxCell>
        <mxCell id="tpsYGi0oh26-8M--UE1b-49" value="&lt;b&gt;Job Creator&lt;/b&gt;" style="shape=component;align=left;spacingLeft=36;rounded=0;shadow=0;comic=0;labelBackgroundColor=none;strokeWidth=1;fontFamily=CMU Serif;fontSize=12;html=1;" vertex="1" parent="1">
          <mxGeometry x="383" y="390.75" width="120" height="60" as="geometry" />
        </mxCell>
        <mxCell id="tpsYGi0oh26-8M--UE1b-198" value="" style="ellipse;whiteSpace=wrap;html=1;align=center;aspect=fixed;fillColor=none;strokeColor=none;resizable=0;perimeter=centerPerimeter;rotatable=0;allowArrows=0;points=[];outlineConnect=1;" vertex="1" parent="1">
          <mxGeometry x="814" y="375" width="10" height="10" as="geometry" />
        </mxCell>
        <mxCell id="tpsYGi0oh26-8M--UE1b-203" value="Sending Architectural&lt;div&gt;Pattern Final Decisions&lt;/div&gt;" style="text;align=center;fontStyle=1;verticalAlign=middle;spacingLeft=3;spacingRight=3;strokeColor=none;rotatable=0;points=[[0,0.5],[1,0.5]];portConstraint=eastwest;html=1;fontSize=8;" vertex="1" parent="1">
          <mxGeometry x="778.43" y="424" width="30" height="26" as="geometry" />
        </mxCell>
        <mxCell id="tpsYGi0oh26-8M--UE1b-204" value="" style="rounded=0;orthogonalLoop=1;jettySize=auto;html=1;endArrow=halfCircle;endFill=0;endSize=6;strokeWidth=1;sketch=0;exitX=0.5;exitY=1;exitDx=0;exitDy=0;" edge="1" parent="1">
          <mxGeometry relative="1" as="geometry">
            <mxPoint x="634" y="447" as="sourcePoint" />
            <mxPoint x="634" y="479" as="targetPoint" />
          </mxGeometry>
        </mxCell>
        <mxCell id="tpsYGi0oh26-8M--UE1b-205" value="" style="rounded=0;orthogonalLoop=1;jettySize=auto;html=1;endArrow=oval;endFill=0;sketch=0;sourcePerimeterSpacing=0;targetPerimeterSpacing=0;endSize=10;exitX=0.5;exitY=0;exitDx=0;exitDy=0;" edge="1" parent="1">
          <mxGeometry relative="1" as="geometry">
            <mxPoint x="634" y="539" as="sourcePoint" />
            <mxPoint x="634" y="479" as="targetPoint" />
          </mxGeometry>
        </mxCell>
        <mxCell id="tpsYGi0oh26-8M--UE1b-65" value="«artifact»&lt;br&gt;&lt;b&gt;Evaluation&amp;nbsp;&lt;/b&gt;&lt;div&gt;&lt;b&gt;Metrics&amp;nbsp;&lt;/b&gt;&lt;/div&gt;&lt;div&gt;&lt;b&gt;(&lt;font style=&quot;font-size: 11px;&quot;&gt;last rounds&lt;/font&gt;)&lt;/b&gt;&lt;/div&gt;" style="html=1;rounded=0;shadow=0;comic=0;labelBackgroundColor=none;strokeWidth=1;fontFamily=CMU Serif;fontSize=12;align=center;" vertex="1" parent="1">
          <mxGeometry x="589" y="527.99" width="100" height="61.53" as="geometry" />
        </mxCell>
        <mxCell id="tpsYGi0oh26-8M--UE1b-206" value="FL Architectural&lt;div&gt;Pattern Selection&lt;/div&gt;" style="text;align=center;fontStyle=1;verticalAlign=middle;spacingLeft=3;spacingRight=3;strokeColor=none;rotatable=0;points=[[0,0.5],[1,0.5]];portConstraint=eastwest;html=1;fontSize=8;" vertex="1" parent="1">
          <mxGeometry x="658" y="482.25" width="30" height="26" as="geometry" />
        </mxCell>
        <mxCell id="tpsYGi0oh26-8M--UE1b-207" value="" style="rounded=0;orthogonalLoop=1;jettySize=auto;html=1;endArrow=halfCircle;endFill=0;endSize=6;strokeWidth=1;sketch=0;exitX=0.5;exitY=1;exitDx=0;exitDy=0;" edge="1" parent="1">
          <mxGeometry relative="1" as="geometry">
            <mxPoint x="632.58" y="310" as="sourcePoint" />
            <mxPoint x="632.58" y="342" as="targetPoint" />
          </mxGeometry>
        </mxCell>
        <mxCell id="tpsYGi0oh26-8M--UE1b-208" value="" style="rounded=0;orthogonalLoop=1;jettySize=auto;html=1;endArrow=oval;endFill=0;sketch=0;sourcePerimeterSpacing=0;targetPerimeterSpacing=0;endSize=10;exitX=0.5;exitY=0;exitDx=0;exitDy=0;" edge="1" parent="1">
          <mxGeometry relative="1" as="geometry">
            <mxPoint x="632.58" y="402" as="sourcePoint" />
            <mxPoint x="632.58" y="342" as="targetPoint" />
          </mxGeometry>
        </mxCell>
        <mxCell id="tpsYGi0oh26-8M--UE1b-139" value="&lt;b&gt;Architectural&amp;nbsp;&lt;/b&gt;&lt;div&gt;&lt;b&gt;Pattern&amp;nbsp;&lt;/b&gt;&lt;/div&gt;&lt;div&gt;&lt;b&gt;Manager&lt;/b&gt;&lt;/div&gt;" style="shape=component;align=left;spacingLeft=36;rounded=0;shadow=0;comic=0;labelBackgroundColor=none;strokeWidth=1;fontFamily=CMU Serif;fontSize=12;html=1;" vertex="1" parent="1">
          <mxGeometry x="565" y="390.75" width="135" height="60" as="geometry" />
        </mxCell>
        <mxCell id="tpsYGi0oh26-8M--UE1b-209" value="Configure Next&lt;div&gt;Round&lt;/div&gt;" style="text;align=center;fontStyle=1;verticalAlign=middle;spacingLeft=3;spacingRight=3;strokeColor=none;rotatable=0;points=[[0,0.5],[1,0.5]];portConstraint=eastwest;html=1;fontSize=8;" vertex="1" parent="1">
          <mxGeometry x="655" y="343.37" width="30" height="26" as="geometry" />
        </mxCell>
        <mxCell id="tpsYGi0oh26-8M--UE1b-213" value="" style="rounded=0;orthogonalLoop=1;jettySize=auto;html=1;endArrow=oval;endFill=0;sketch=0;sourcePerimeterSpacing=0;targetPerimeterSpacing=0;endSize=10;exitX=0.571;exitY=0.995;exitDx=0;exitDy=0;exitPerimeter=0;" edge="1" parent="1" source="tpsYGi0oh26-8M--UE1b-57">
          <mxGeometry relative="1" as="geometry">
            <mxPoint x="794.795" y="386.1185" as="sourcePoint" />
            <mxPoint x="794.78" y="417.59" as="targetPoint" />
          </mxGeometry>
        </mxCell>
        <mxCell id="tpsYGi0oh26-8M--UE1b-214" value="" style="shape=requiredInterface;html=1;verticalLabelPosition=bottom;sketch=0;rotation=-180;" vertex="1" parent="1">
          <mxGeometry x="787.24" y="411" width="6.38" height="13.53" as="geometry" />
        </mxCell>
        <mxCell id="tpsYGi0oh26-8M--UE1b-215" style="edgeStyle=orthogonalEdgeStyle;rounded=0;orthogonalLoop=1;jettySize=auto;html=1;exitX=1;exitY=0.5;exitDx=0;exitDy=0;exitPerimeter=0;entryX=0.991;entryY=0.451;entryDx=0;entryDy=0;entryPerimeter=0;endArrow=none;startFill=0;" edge="1" parent="1" source="tpsYGi0oh26-8M--UE1b-214" target="tpsYGi0oh26-8M--UE1b-139">
          <mxGeometry relative="1" as="geometry" />
        </mxCell>
        <mxCell id="tpsYGi0oh26-8M--UE1b-216" value="Relation" style="text;html=1;align=center;verticalAlign=middle;whiteSpace=wrap;rounded=0;fontColor=#000000;fontSize=10;" vertex="1" parent="1">
          <mxGeometry x="1002" y="567" width="40" height="30" as="geometry" />
        </mxCell>
        <mxCell id="tpsYGi0oh26-8M--UE1b-217" value="" style="endArrow=classic;html=1;rounded=0;dashed=1;" edge="1" parent="1">
          <mxGeometry width="50" height="50" relative="1" as="geometry">
            <mxPoint x="955" y="583" as="sourcePoint" />
            <mxPoint x="995" y="583" as="targetPoint" />
          </mxGeometry>
        </mxCell>
      </root>
    </mxGraphModel>
  </diagram>
</mxfile>
